<svg xmlns="http://www.w3.org/2000/svg" viewBox="0 0 211 239.047" fill="rgba(0,60,136,.5)">
    <g transform="translate(-262 304)">
        <path d="M42.488,174.078A67.765,67.765,0,0,1,20.353,159.54,69.874,69.874,0,0,1,0,110.018Q0,97.638,6.753,81.6A159.6,159.6,
            0,0,1,24.2,50.554C38.83,31.233,51.585,16.6,62.278,6.753L69.313,0A59.906,59.906,0,0,0,77.1,6.753c3.845,3.939,9.754,10.411,
            17.633,19.6s14.725,17.352,20.353,24.855A166.661,166.661,0,0,1,132.06,81.693c4.6,10.786,6.94,20.259,6.94,28.419a67.254,67.254,0,
            0,1-5.44,26.824,69.766,69.766,0,0,1-14.725,22.135,70.768,70.768,0,0,1-49.523,20.354A68.814,68.814,0,0,1,42.488,174.078Z" 
            transform="translate(262 -304)"/>
        <path d="M28.427,116.47a45.339,45.339,0,0,1-14.81-9.727A46.75,46.75,0,0,1,0,73.609Q0,65.327,4.518,54.6A106.786,106.786,0,0,1,16.19,
        33.824C25.98,20.9,34.514,11.107,41.668,4.518L46.375,0a40.081,40.081,0,0,0,5.209,4.518c2.572,2.636,6.526,6.966,11.8,13.116S73.233,
        29.243,77,34.264A111.508,111.508,0,0,1,88.357,54.658C91.431,61.875,93,68.213,93,73.672A45,45,0,0,1,89.361,91.62a46.678,46.678,0,0,
        1-9.852,14.81,47.348,47.348,0,0,1-33.134,13.618A46.041,46.041,0,0,1,28.427,116.47Z" transform="translate(380 -185)"/>
    </g>
</svg>