<svg xmlns="http://www.w3.org/2000/svg" viewBox="0 0 173 92.679"><defs><style>.a{fill:rgba(0,60,136,0.5);}</style></defs><path class="a" d="M3.1,67.247a5.826,5.826,0,0,0,2.035,4.507,5.666,5.666,0,0,0,4.579,2.035h106.78a7.184,7.184,0,0,1,5.306,2.181,7.347,7.347,0,0,1,2.181,5.379,6.911,6.911,0,0,1-2.181,5.234,7.46,7.46,0,0,1-5.379,2.108,7.29,7.29,0,0,1-5.306-2.108,5.528,5.528,0,0,0-4.361-1.89,6.54,6.54,0,0,0-4.652,1.89,5.964,5.964,0,0,0-1.963,4.434,5.868,5.868,0,0,0,2.035,4.579,19.817,19.817,0,0,0,14.247,6.033,20.309,20.309,0,0,0,14.611-5.888,19,19,0,0,0,6.033-14.32,20.85,20.85,0,0,0-20.644-20.644H9.715a6.54,6.54,0,0,0-4.652,1.89A6.048,6.048,0,0,0,3.1,67.247ZM3.1,43.4a5.9,5.9,0,0,0,2.035,4.434,5.984,5.984,0,0,0,4.579,1.89H155.384a20.083,20.083,0,0,0,14.611-5.96,19.183,19.183,0,0,0,6.106-14.32,19.615,19.615,0,0,0-6.106-14.465A20.151,20.151,0,0,0,155.384,8.95a19.3,19.3,0,0,0-14.174,5.815,6.143,6.143,0,0,0-1.963,4.87,6.024,6.024,0,0,0,1.89,4.579,6.427,6.427,0,0,0,4.579,1.745,6.677,6.677,0,0,0,4.579-1.745,6.527,6.527,0,0,1,5.088-2.253,7.446,7.446,0,0,1,7.487,7.487,6.911,6.911,0,0,1-2.181,5.234,7.41,7.41,0,0,1-5.306,2.108H9.715A6.577,6.577,0,0,0,3.1,43.4Z" transform="translate(-3.1 -8.95)"/></svg>